<?xml version="1.0" encoding="UTF-8"?>
<svg version="1.1" xmlns="http://www.w3.org/2000/svg" width="512" height="512">
<path d="M0 0 C4.3479258 2.69331421 8.00033048 5.71641565 11.5809021 9.34039307 C12.37263398 10.12956167 12.37263398 10.12956167 13.18036044 10.93467307 C14.93540379 12.68644057 16.68323544 14.44522545 18.43115234 16.20410156 C19.69267527 17.46618902 20.95463952 18.72783549 22.2170105 19.98907471 C25.63426172 23.40575303 29.04531915 26.82855469 32.45528746 30.25249958 C36.02313479 33.83286469 39.59666139 37.4075522 43.16958618 40.98284912 C49.93077136 47.75024597 56.68684286 54.52272411 63.44108641 61.29704833 C71.13240853 69.01073912 78.82942266 76.71873946 86.52691722 84.42627001 C102.35761419 100.27786191 118.18115928 116.13657695 134 132 C137.87734286 130.41016033 140.31050743 127.92548437 143.24186707 124.97172546 C143.75754582 124.45493329 144.27322458 123.93814112 144.80452996 123.40568858 C146.53096722 121.67318044 148.2501413 119.93364019 149.96948242 118.1940918 C151.20622522 116.95023607 152.44344002 115.70684948 153.68109131 114.46389771 C156.34606292 111.78582253 159.00799259 109.10477226 161.66771507 106.42148399 C165.87739464 102.17521016 170.09576678 97.93764515 174.31575012 93.70161438 C186.31477248 81.65429961 198.30207972 69.59536851 210.28051758 57.52758789 C216.89583159 50.86308723 223.5183839 44.20586395 230.14869958 37.55628711 C234.34098083 33.35095481 238.52410305 29.13678604 242.70058572 24.91576612 C245.30805924 22.28474121 247.92394549 19.6622062 250.54222107 17.04193497 C251.7498001 15.83008043 252.95395876 14.61480585 254.15430641 13.39578819 C262.53664202 4.88822188 269.78404837 -2.07840484 282.125 -3.3125 C290.00231969 -2.67723228 297.21126963 -0.10263731 302.5625 5.87890625 C306.57109843 11.79376753 308.92518028 18.86289501 308 26 C305.22263701 38.60142381 295.55988224 46.72328334 286.75244141 55.47460938 C285.50976293 56.71672292 284.26752623 57.95927859 283.0256958 59.20223999 C279.67111626 62.55739084 276.31042799 65.90636073 272.94857073 69.25421715 C269.42959709 72.76064641 265.91632651 76.27278059 262.4024353 79.78430176 C255.75552307 86.4250101 249.10353132 93.06060581 242.44967878 99.6943593 C234.87135619 107.2502889 227.29874529 114.81193181 219.72659802 122.37404919 C204.15739202 137.9223779 188.58106217 153.46355302 173 169 C174.58983967 172.87734286 177.07451563 175.31050743 180.02827454 178.24186707 C180.54506671 178.75754582 181.06185888 179.27322458 181.59431142 179.80452996 C183.32681956 181.53096722 185.06635981 183.2501413 186.8059082 184.96948242 C188.04976393 186.20622522 189.29315052 187.44344002 190.53610229 188.68109131 C193.21417747 191.34606292 195.89522774 194.00799259 198.57851601 196.66771507 C202.82478984 200.87739464 207.06235485 205.09576678 211.29838562 209.31575012 C223.34570039 221.31477248 235.40463149 233.30207972 247.47241211 245.28051758 C254.13691277 251.89583159 260.79413605 258.5183839 267.44371289 265.14869958 C271.64904519 269.34098083 275.86321396 273.52410305 280.08423388 277.70058572 C282.71525879 280.30805924 285.3377938 282.92394549 287.95806503 285.54222107 C289.16991957 286.7498001 290.38519415 287.95395876 291.60421181 289.15430641 C300.11177812 297.53664202 307.07840484 304.78404837 308.3125 317.125 C307.67723228 325.00231969 305.10263731 332.21126963 299.12109375 337.5625 C293.20623247 341.57109843 286.13710499 343.92518028 279 343 C266.39857619 340.22263701 258.27671666 330.55988224 249.52539062 321.75244141 C248.28327708 320.50976293 247.04072141 319.26752623 245.79776001 318.0256958 C242.44260916 314.67111626 239.09363927 311.31042799 235.74578285 307.94857073 C232.23935359 304.42959709 228.72721941 300.91632651 225.21569824 297.4024353 C218.5749899 290.75552307 211.93939419 284.10353132 205.3056407 277.44967878 C197.7497111 269.87135619 190.18806819 262.29874529 182.62595081 254.72659802 C167.0776221 239.15739202 151.53644698 223.58106217 136 208 C132.12265714 209.58983967 129.68949257 212.07451563 126.75813293 215.02827454 C126.24245418 215.54506671 125.72677542 216.06185888 125.19547004 216.59431142 C123.46903278 218.32681956 121.7498587 220.06635981 120.03051758 221.8059082 C118.79377478 223.04976393 117.55655998 224.29315052 116.31890869 225.53610229 C113.65393708 228.21417747 110.99200741 230.89522774 108.33228493 233.57851601 C104.12260536 237.82478984 99.90423322 242.06235485 95.68424988 246.29838562 C83.68522752 258.34570039 71.69792028 270.40463149 59.71948242 282.47241211 C53.10416841 289.13691277 46.4816161 295.79413605 39.85130042 302.44371289 C35.65901917 306.64904519 31.47589695 310.86321396 27.29941428 315.08423388 C24.69194076 317.71525879 22.07605451 320.3377938 19.45777893 322.95806503 C18.2501999 324.16991957 17.04604124 325.38519415 15.84569359 326.60421181 C7.46335798 335.11177812 0.21595163 342.07840484 -12.125 343.3125 C-20.00231969 342.67723228 -27.21126963 340.10263731 -32.5625 334.12109375 C-36.57109843 328.20623247 -38.92518028 321.13710499 -38 314 C-35.22263701 301.39857619 -25.55988224 293.27671666 -16.75244141 284.52539062 C-15.50976293 283.28327708 -14.26752623 282.04072141 -13.0256958 280.79776001 C-9.67111626 277.44260916 -6.31042799 274.09363927 -2.94857073 270.74578285 C0.57040291 267.23935359 4.08367349 263.72721941 7.5975647 260.21569824 C14.24447693 253.5749899 20.89646868 246.93939419 27.55032122 240.3056407 C35.12864381 232.7497111 42.70125471 225.18806819 50.27340198 217.62595081 C65.84260798 202.0776221 81.41893783 186.53644698 97 171 C95.41016033 167.12265714 92.92548437 164.68949257 89.97172546 161.75813293 C89.45493329 161.24245418 88.93814112 160.72677542 88.40568858 160.19547004 C86.67318044 158.46903278 84.93364019 156.7498587 83.1940918 155.03051758 C81.95023607 153.79377478 80.70684948 152.55655998 79.46389771 151.31890869 C76.78582253 148.65393708 74.10477226 145.99200741 71.42148399 143.33228493 C67.17521016 139.12260536 62.93764515 134.90423322 58.70161438 130.68424988 C46.65429961 118.68522752 34.59536851 106.69792028 22.52758789 94.71948242 C15.86308723 88.10416841 9.20586395 81.4816161 2.55628711 74.85130042 C-1.64904519 70.65901917 -5.86321396 66.47589695 -10.08423388 62.29941428 C-12.71525879 59.69194076 -15.3377938 57.07605451 -17.95806503 54.45777893 C-19.16991957 53.2501999 -20.38519415 52.04604124 -21.60421181 50.84569359 C-30.11177812 42.46335798 -37.07840484 35.21595163 -38.3125 22.875 C-37.67723228 14.99768031 -35.10263731 7.78873037 -29.12109375 2.4375 C-19.86820674 -3.83333319 -10.06860061 -4.5657952 0 0 Z " fill="#000000" transform="translate(121,86)"/>
</svg>
